<?xml version="1.0" standalone="no"?>
<!DOCTYPE svg PUBLIC "-//W3C//DTD SVG 20010904//EN"
 "http://www.w3.org/TR/2001/REC-SVG-20010904/DTD/svg10.dtd">
<svg version="1.0" xmlns="http://www.w3.org/2000/svg"
 width="251.000000pt" height="237.000000pt" viewBox="0 0 251.000000 237.000000"
 preserveAspectRatio="xMidYMid meet">

<g transform="translate(0.000000,237.000000) scale(0.100000,-0.100000)"
fill="#000000" stroke="none">
<path d="M2315 2343 c20 -120 47 -399 48 -493 0 -63 -10 -189 -22 -280 l-21
-165 -123 -119 -122 -120 123 -238 124 -238 -62 -256 c-52 -215 -60 -261 -50
-282 11 -24 10 -25 -22 -19 -168 30 -265 47 -275 47 -10 0 -13 -25 -13 -90 l0
-90 305 0 305 0 0 1185 0 1185 -100 0 -99 0 4 -27z"/>
<path d="M1868 2272 c-20 -2 -28 -10 -33 -33 -9 -42 0 -47 32 -18 15 13 8 2
-17 -26 -24 -27 -48 -51 -52 -53 -4 -2 -8 -10 -8 -17 0 -7 -3 -15 -8 -17 -4
-1 -24 -25 -44 -53 -20 -27 -52 -65 -72 -84 -28 -27 -38 -32 -49 -22 -18 14
-29 -6 -20 -38 11 -42 -151 -279 -291 -428 -87 -92 -112 -137 -41 -71 83 75
238 271 317 402 27 45 72 108 101 141 29 33 65 75 80 94 15 18 30 32 32 29 5
-5 10 -38 25 -173 6 -49 21 -155 35 -235 20 -123 21 -147 9 -156 -7 -6 -11
-14 -8 -17 3 -3 -3 -3 -15 0 -13 3 -21 1 -21 -6 0 -7 5 -9 12 -5 7 4 8 3 4 -4
-4 -6 -13 -9 -20 -6 -20 8 -31 -34 -16 -61 7 -13 32 -38 56 -56 l44 -33 0
-130 c-1 -75 -7 -156 -14 -189 -30 -122 -153 -334 -188 -323 -10 3 -27 9 -38
12 -13 4 -28 -3 -48 -23 -16 -16 -34 -27 -41 -25 -6 2 -11 -5 -12 -15 0 -10
-3 -13 -6 -5 -8 20 -25 13 -18 -8 3 -11 2 -20 -3 -20 -5 0 -13 10 -16 23 l-7
22 -9 -23 c-5 -12 -13 -22 -18 -22 -17 0 -30 -45 -20 -66 22 -40 62 -74 89
-74 31 0 42 12 59 63 6 21 26 52 44 70 84 83 214 286 251 392 11 32 21 105 26
205 5 85 12 185 15 221 5 62 4 68 -19 90 -23 21 -29 45 -55 214 -17 105 -33
219 -36 254 -4 35 -9 81 -12 101 -4 25 -1 48 12 71 l17 34 9 -31 c13 -49 34
-50 69 -1 52 71 63 97 47 113 -14 14 -66 22 -110 16z"/>
<path d="M2140 2072 c0 -5 -17 -17 -37 -28 -21 -10 -40 -20 -41 -21 -2 -1 -1
-11 3 -23 8 -25 79 -75 95 -65 9 6 50 78 50 89 0 8 -54 56 -62 56 -5 0 -8 -4
-8 -8z"/>
<path d="M1673 1921 c-3 -12 -13 -21 -22 -22 -12 0 -11 -2 4 -8 11 -5 23 -7
26 -5 12 7 17 44 7 50 -5 3 -12 -3 -15 -15z"/>
<path d="M1059 1840 c-20 -10 -43 -33 -51 -51 -15 -29 -14 -35 4 -80 16 -39
27 -51 60 -64 22 -9 38 -19 34 -22 -3 -3 -1 -12 4 -18 12 -14 -6 -65 -22 -65
-5 0 -6 4 -3 10 3 5 0 7 -8 4 -9 -3 -25 8 -43 31 -36 48 -73 62 -168 63 -90 1
-124 -12 -146 -55 -8 -15 -17 -30 -20 -33 -3 -3 -11 -17 -17 -31 -10 -23 -9
-28 10 -37 21 -10 21 -11 -5 -11 -27 -1 -32 -9 -31 -48 1 -7 -4 -13 -9 -13 -7
0 -6 -5 1 -13 8 -11 6 -19 -8 -35 -10 -12 -21 -19 -25 -15 -3 3 -6 -14 -6 -39
0 -39 5 -50 30 -71 16 -14 39 -28 50 -32 19 -6 29 -45 12 -45 -5 0 -9 -6 -9
-12 0 -7 -3 -29 -7 -48 -7 -34 -6 -35 8 -10 l14 25 10 -25 c6 -14 15 -43 21
-66 6 -23 22 -53 36 -68 42 -46 34 -69 -56 -162 -45 -45 -79 -88 -77 -94 2 -6
31 16 65 49 34 34 64 61 68 61 3 0 -13 -36 -36 -79 -37 -69 -42 -84 -33 -108
8 -24 16 -28 51 -31 52 -4 93 17 129 63 15 20 29 34 31 31 2 -2 -3 -34 -12
-70 -29 -129 -15 -199 48 -233 26 -14 60 -18 172 -19 181 -2 215 -15 260 -103
13 -27 16 -55 13 -152 -2 -66 0 -119 3 -119 14 0 19 36 19 138 0 128 -18 177
-77 216 -55 36 -117 47 -254 44 l-121 -3 -29 33 c-24 27 -29 41 -29 85 0 28 5
71 10 94 5 23 16 85 24 138 8 54 17 99 20 102 13 14 187 -90 301 -180 151
-119 174 -126 192 -57 6 25 8 50 5 56 -17 29 -199 187 -306 266 -135 100 -136
92 14 128 47 12 92 23 102 26 11 3 39 -25 98 -101 75 -97 85 -106 109 -100 32
7 74 52 67 71 -12 30 -179 246 -203 261 -22 15 -34 15 -107 4 -44 -7 -103 -15
-131 -18 -27 -3 -55 -10 -62 -15 -7 -5 -14 -5 -17 1 -4 6 19 35 51 66 41 39
65 55 84 55 32 0 48 17 24 26 -23 9 -56 -11 -123 -73 -65 -60 -90 -57 -49 6
15 22 27 44 27 49 0 5 -24 9 -52 11 -89 3 -222 22 -233 32 -9 9 24 125 45 159
11 17 62 4 96 -25 27 -23 27 -25 10 -44 -21 -23 -23 -22 93 -46 l75 -15 50 49
c28 27 72 69 99 92 26 23 47 48 47 55 0 8 3 14 8 14 4 0 26 18 50 40 39 36 41
40 23 49 -15 9 -26 5 -52 -19 -37 -32 -45 -35 -54 -20 -12 19 -24 10 -31 -25
-5 -28 -11 -35 -29 -35 -41 0 -56 26 -53 89 l3 56 40 0 c53 0 67 10 59 43 -9
36 -24 54 -40 48 -8 -3 -11 0 -8 8 3 9 -6 16 -27 20 -46 9 -60 7 -100 -14z
m45 -142 c5 -31 3 -33 -25 -18 -21 12 -26 46 -6 53 17 6 25 -3 31 -35z m-224
-805 l52 -17 -4 -62 c-3 -48 -10 -71 -33 -104 -37 -53 -91 -90 -132 -90 -48 0
-51 28 -10 103 19 34 40 80 47 102 7 22 16 45 21 51 5 6 3 16 -3 22 -17 17 -1
15 62 -5z"/>
<path d="M1175 1720 c-3 -5 -2 -10 4 -10 5 0 13 5 16 10 3 6 2 10 -4 10 -5 0
-13 -4 -16 -10z"/>
<path d="M1947 1702 c-36 -22 -44 -55 -26 -106 10 -29 22 -43 42 -50 24 -9 31
-6 63 25 57 55 58 62 18 108 -40 45 -55 49 -97 23z"/>
<path d="M1095 1590 c-3 -5 -1 -10 4 -10 6 0 11 5 11 10 0 6 -2 10 -4 10 -3 0
-8 -4 -11 -10z"/>
<path d="M875 1469 c-4 -6 -4 -13 -1 -16 8 -8 36 5 36 17 0 13 -27 13 -35 -1z"/>
<path d="M650 1120 c0 -6 -4 -9 -9 -6 -5 4 -7 -4 -3 -16 4 -16 7 -18 10 -8 3
8 9 18 15 21 5 4 5 9 -2 13 -6 4 -11 2 -11 -4z"/>
<path d="M677 1057 c-3 -9 -14 -16 -24 -15 -58 5 -58 5 -58 -95 l0 -92 50 0
50 0 3 86 c3 87 -8 149 -21 116z"/>
<path d="M1570 925 c-1 -5 -2 -13 -1 -17 0 -5 -4 -8 -10 -8 -21 0 -56 -36 -53
-55 15 -100 59 -132 113 -81 15 14 51 34 81 46 68 27 80 36 80 66 0 34 -29 46
-76 29 -21 -7 -41 -10 -44 -7 -8 10 -34 8 -42 -3 -5 -6 -8 -5 -8 3 0 19 -20
14 -21 -5 -1 -10 -5 -4 -9 12 -4 17 -9 26 -10 20z"/>
<path d="M1930 915 c-24 -29 -18 -98 13 -141 15 -22 27 -48 27 -57 0 -23 9
-21 52 8 47 32 56 49 64 117 6 54 6 55 -24 67 -17 7 -36 10 -41 6 -6 -3 -11
-1 -11 4 0 17 -66 13 -80 -4z m40 -8 c-14 -8 -28 -12 -33 -10 -14 8 1 18 30
21 l28 2 -25 -13z"/>
<path d="M1963 484 c-13 -9 -14 -16 -3 -50 7 -21 16 -43 21 -48 12 -13 109 62
109 85 0 10 -3 19 -7 20 -46 6 -108 2 -120 -7z"/>
<path d="M1589 193 c-19 -48 -35 -90 -37 -95 -2 -4 3 -8 12 -8 17 0 21 -11 8
-25 -5 -6 -13 -22 -20 -38 l-12 -27 96 0 95 0 -25 43 c-18 30 -23 46 -15 54 7
7 0 37 -23 96 -18 48 -35 87 -38 87 -4 0 -22 -39 -41 -87z"/>
</g>
</svg>
